# xmcd
# 
# Track frame offsets:
#     150
#     16344
#     35728
#     54933
#     73607
#     96435
#     115369
#     132855
#     147702
#     164970
#     181151
# 
# Disc length: 2640
# 
# Revision: 1
# Processed by: cddbd v1.5.2PL0 Copyright (c) Steve Scherf et al.
# Submitted via: fre:ac v1.0.31
# 
DISCID=a60a4e0b
DTITLE=Ricardo Montaner - Ida y Vuelta
DYEAR=2016
DGENRE=Latin
TTITLE0=Aunque Ahora Estes Con El
TTITLE1=Por Mujeres Como Tú
TTITLE2=Vuelve Conmigo
TTITLE3=Te Hubieras Ido Antes
TTITLE4=Hombre Normal
TTITLE5=Te Amo y Te Amo
TTITLE6=Eres Mi Cenicienta
TTITLE7=Perdóname
TTITLE8=Quién Diría (Versión Novela)
TTITLE9=Estoy Contento
TTITLE10=Quién Diría Ft. Yuri
EXTD=
EXTT0=
EXTT1=
EXTT2=
EXTT3=
EXTT4=
EXTT5=
EXTT6=
EXTT7=
EXTT8=
EXTT9=
EXTT10=
PLAYORDER=
